<svg width="1435" height="71" viewBox="0 0 1435 71" fill="none" xmlns="http://www.w3.org/2000/svg">
<path d="M1435 93H-5.28504C-5.28504 74.6733 -11.5842 49.2305 13.2121 43.652C38.0084 38.0735 72.7033 41.7746 80.7021 50.625C80.7021 39.8078 92.1004 15.2232 137.694 3.42257C194.685 -11.3282 208.683 25.9511 219.681 32.9242C223.181 20.0508 261.675 3.42257 305.669 3.42257C349.662 3.42257 358.661 18.1735 371.659 43.652C384.657 9.32284 423.151 3.42257 461.645 3.42257C492.441 3.42257 503.639 30.7786 504.139 38.0199C508.472 30.7786 525.636 3.42257 569.629 3.42257C613.623 3.42257 635.286 26.4875 640.619 38.0199C646.118 26.4875 670.714 3.42257 725.106 3.42257C798.595 3.42257 811.093 26.2193 822.092 38.0199L822.262 37.6694C831.187 19.3117 838.911 3.42257 889.581 3.42257C940.574 3.42257 948.073 35.0698 970.07 43.652C981.068 20.8553 990.566 5.56814 1052.56 3.42257C1114.55 1.277 1126.05 35.0697 1144.04 43.652C1160.54 20.8553 1186.04 14.4186 1239.53 18.1734C1282.32 21.1772 1296.35 51.6085 1298.02 66.4487C1301.02 62.1575 1312.12 52.9852 1332.52 50.625C1402.5 42.0428 1430 75.2991 1435 93Z" fill="#EDEDED"/>
</svg>
