<svg width="53" height="54" viewBox="0 0 53 54" fill="none" xmlns="http://www.w3.org/2000/svg">
<ellipse cx="26.5" cy="27" rx="26.5" ry="27" fill="#E8CAD9"/>
<path d="M15.448 43.5056C15 43.5056 14.472 43.1376 13.864 42.4016C13.288 41.6336 13 40.8495 13 40.0495C13 39.2175 14.04 34.7695 16.12 26.7055C18.2 18.6415 19.24 13.5855 19.24 11.5375C19.24 10.9615 19.304 10.5615 19.432 10.3375C19.56 10.1135 19.848 10.0015 20.296 10.0015C20.776 10.0015 23.36 9.92153 24 10.9135C24.64 11.9055 22.936 13.6175 22.936 14.8975C22.936 16.1775 22.104 19.9695 20.44 26.2735C23.352 22.3055 26.424 18.6575 29.656 15.3295C32.888 11.9695 34.936 10.2895 35.8 10.2895C36.44 10.2895 38.956 10.4975 39.5 10.9135C40.076 11.3295 38.44 11.7455 38.44 12.1615C38.44 12.5455 37.672 13.4415 36.136 14.8495C34.632 16.2255 32.6 18.1615 30.04 20.6575C27.48 23.1535 25.288 25.6495 23.464 28.1455C23.464 29.4575 23.816 30.8815 24.52 32.4175C25.64 34.9775 27.944 37.1055 31.432 38.8015C32.936 39.5375 34.104 40.1615 34.936 40.6735C35.8 41.1855 36.232 41.7136 36.232 42.2576C36.232 43.0896 38.248 43.5056 37 43.5056C35.752 43.5056 31.8 43.2495 30.424 42.7375C29.048 42.1936 27.672 41.4415 26.296 40.4815C24.92 39.5215 23.656 38.2575 22.504 36.6895C21.384 35.0895 20.616 33.3455 20.2 31.4575C19.208 33.2175 18.28 35.5375 17.416 38.4175C16.36 41.8095 18.224 43.5056 18 43.5056H15.448Z" fill="#692D4B"/>
<path d="M17.948 43.5096C17.5 43.5096 16.972 43.1416 16.364 42.4056C15.788 41.6376 15.5 40.8536 15.5 40.0536C15.5 39.2216 16.54 34.7736 18.62 26.7096C20.7 18.6456 21.74 13.5896 21.74 11.5416C21.74 10.9656 21.804 10.5656 21.932 10.3416C22.06 10.1176 22.348 10.0056 22.796 10.0056C23.276 10.0056 23.836 10.5016 24.476 11.4936C25.116 12.4856 25.436 13.6216 25.436 14.9016C25.436 16.1816 24.604 19.9736 22.94 26.2776C25.852 22.3096 28.924 18.6616 32.156 15.3336C35.388 11.9736 37.436 10.2936 38.3 10.2936C38.94 10.2936 39.532 10.5016 40.076 10.9176C40.652 11.3336 40.94 11.7496 40.94 12.1656C40.94 12.5496 40.172 13.4456 38.636 14.8536C37.132 16.2296 35.1 18.1656 32.54 20.6616C29.98 23.1576 27.788 25.6536 25.964 28.1496C25.964 29.4616 26.316 30.8856 27.02 32.4216C28.14 34.9816 30.444 37.1096 33.932 38.8056C35.436 39.5416 36.604 40.1656 37.436 40.6776C38.3 41.1896 38.732 41.7176 38.732 42.2616C38.732 43.0936 38.108 43.5096 36.86 43.5096C35.612 43.5096 34.3 43.2536 32.924 42.7416C31.548 42.1976 30.172 41.4456 28.796 40.4856C27.42 39.5256 26.156 38.2616 25.004 36.6936C23.884 35.0936 23.116 33.3496 22.7 31.4616C21.708 33.2216 20.78 35.5416 19.916 38.4216C18.86 41.8136 18.22 43.5096 17.996 43.5096H17.948Z" fill="#A8728D"/>
</svg>
